<svg id="SvgjsSvg1001" width="288" height="288" xmlns="http://www.w3.org/2000/svg" version="1.1" xmlns:xlink="http://www.w3.org/1999/xlink" xmlns:svgjs="http://svgjs.com/svgjs"><defs id="SvgjsDefs1002"></defs><g id="SvgjsG1008" transform="matrix(0.9167,0,0,0.9167,12.077431994247434,12.593764634323122)"><svg xmlns="http://www.w3.org/2000/svg" width="288" height="288" viewBox="0 0 16745.467 16211.333"><defs><clipPath id="a" clipPathUnits="userSpaceOnUse"><path d="M 0,12158.457 H 12559.059 V 0 H 0 Z" fill="#818181" class="svgShape"></path></clipPath></defs><g clip-path="url(#a)" transform="matrix(1.33333 0 0 -1.33333 0 16211.333)" fill="#818181" class=" svgShape"><path fill="#818181" d="m 0,0 h 6515.907 c 230.36,-13.248 1612.237,-115.527 2541.949,-1286.271 613.909,-773.064 706.724,-1604.083 725.496,-1934.653 2.065,-322.097 -34.534,-1239.949 -677.129,-2116.028 -841.499,-1147.255 -2092.317,-1364.118 -2345.768,-1402.624 -636.471,-1.371 -1272.94,-2.741 -1909.412,-4.111 -201.879,-643.515 -403.758,-1287.028 -605.638,-1930.543 -55.249,-51.84 -147.664,-121.383 -265.737,-126.147 -182.263,-7.357 -322.904,143.742 -375.117,198.697 -127.248,133.928 -1823.512,1900.911 -2364.309,2339.282 -71.996,58.36 -283.389,222.77 -342.497,493.842 -29.413,134.893 -10.346,246.809 0.194,301.333 63.826,330.154 360.987,1380.184 796.142,2790.42 1643.475,3.892 3286.949,7.783 4930.425,11.675 48.2,-16.556 294.739,-106.706 426.147,-374.422 142.106,-289.512 38.766,-560.934 21.631,-603.759 -25.335,-59.527 -74.017,-152.356 -164.879,-239.731 -129.551,-124.581 -272.2,-168.211 -340.416,-184.295 -1269.616,-4.031 -2539.233,-8.061 -3808.849,-12.092 -124.946,-459.481 -249.893,-918.96 -374.839,-1378.441 334.991,-336.069 669.98,-672.137 1004.971,-1008.206 l 285.335,1132.421 c 1039.672,0.552 2079.343,1.103 3119.015,1.654 160.557,36.14 801.384,199.914 1225.358,817.275 65.679,95.637 336.466,509.896 344.101,1111.127 2.291,180.365 -15.967,734.538 -416.65,1258.824 -410.252,536.806 -956.688,695.478 -1119.368,736.361 -1804.76,0.506 -3609.521,1.011 -5414.283,1.516 z" transform="translate(1430.901 10166.231)" class="color252122 svgShape"></path></g></svg></g></svg>